<?xml version="1.0" encoding="iso-8859-1"?>
<!-- Generator: Adobe Illustrator 16.0.0, SVG Export Plug-In . SVG Version: 6.00 Build 0)  -->
<!DOCTYPE svg PUBLIC "-//W3C//DTD SVG 1.1//EN" "http://www.w3.org/Graphics/SVG/1.1/DTD/svg11.dtd">
<svg xmlns="http://www.w3.org/2000/svg" width="486" height="486" viewBox="0 0 486 486"><defs><style>.cls-1{fill:#f5f5f5;}.cls-2{fill:#5979ea;}.cls-3{fill:#8c4ba5;}.cls-4{fill:#da5848;}</style></defs><title>Recaptcha</title><g id="Layer_2" data-name="Layer 2"><circle class="cls-1" cx="243" cy="243" r="243"/></g><g id="Symbol"><g id="Arrow_3" data-name="Arrow 3"><path class="cls-2" d="M378.36,168.9A150,150,0,0,0,256,105.81q-3.78,0-7.52.19a149.25,149.25,0,0,0-79.58,27.64L220.26,185A79.54,79.54,0,0,1,327,220.26l-16.82,16.82L291.26,256H406V141.26Z" transform="translate(-13 -13)"/></g><g id="Arrow_2" data-name="Arrow 2"><path class="cls-3" d="M248.48,106H141.26l27.64,27.64A150,150,0,0,0,105.81,256c0,2.58.07,5.14.19,7.69a149.38,149.38,0,0,0,27.64,79.41L185,291.74A79.54,79.54,0,0,1,220.26,185L256,220.74V106Z" transform="translate(-13 -13)"/></g><g id="Arrow_1" data-name="Arrow 1"><path class="cls-4" d="M329.79,311c-1-.09-2-.13-3.08-.13s-2,0-3,.12a35.31,35.31,0,0,0-16.34,5.59q-2.37,2-4.9,3.84a78.92,78.92,0,0,1-43.62,15c-.95,0-1.92.06-2.88.06s-2.12,0-3.17-.07A79.47,79.47,0,0,1,185,291.74L220.74,256H106V370.74l27.64-27.64a150,150,0,0,0,121.24,63.08H256a149.51,149.51,0,0,0,92-31.49c.45-.34.89-.69,1.33-1.05A35.46,35.46,0,0,0,329.79,311Z" transform="translate(-13 -13)"/></g></g></svg>